<?xml version="1.0" encoding="UTF-8" standalone="no"?>
<!-- Generator: Adobe Illustrator 19.0.0, SVG Export Plug-In . SVG Version: 6.00 Build 0)  -->

<svg
   xmlns:dc="http://purl.org/dc/elements/1.1/"
   xmlns:cc="http://creativecommons.org/ns#"
   xmlns:rdf="http://www.w3.org/1999/02/22-rdf-syntax-ns#"
   xmlns:svg="http://www.w3.org/2000/svg"
   xmlns="http://www.w3.org/2000/svg"
   xmlns:sodipodi="http://sodipodi.sourceforge.net/DTD/sodipodi-0.dtd"
   xmlns:inkscape="http://www.inkscape.org/namespaces/inkscape"
   version="1.1"
   id="Layer_1"
   x="0px"
   y="0px"
   viewBox="0 0 400 400"
   style="enable-background:new 0 0 400 400;"
   xml:space="preserve"
   sodipodi:docname="HomeControl.svg"
   inkscape:version="0.92.4 (5da689c313, 2019-01-14)"><metadata
   id="metadata6219"><rdf:RDF><cc:Work
       rdf:about=""><dc:format>image/svg+xml</dc:format><dc:type
         rdf:resource="http://purl.org/dc/dcmitype/StillImage" /><dc:title></dc:title></cc:Work></rdf:RDF></metadata><defs
   id="defs6217"><clipPath
     clipPathUnits="userSpaceOnUse"
     id="clipPath6861"><g
       style="fill:#ff8838;fill-opacity:1"
       id="use6863"
       inkscape:label="Clip"><path
         style="fill:#ff8838;fill-opacity:1;stroke:none;stroke-width:1.69491529px;stroke-linecap:butt;stroke-linejoin:miter;stroke-opacity:1"
         d="M 170.86668,-96.367566 C 99.589816,-108.05628 42.516636,-163.76959 27.789806,-236.03537 c -14.55792,-71.43694 15.04552,-145.56527 74.026294,-185.36507 77.18484,-52.08379 177.38845,-33.8679 234.47112,42.62421 10.30105,13.80365 23.02249,41.01833 28.14471,60.2093 3.97581,14.89586 4.53079,20.23942 4.66078,44.87545 0.191,36.20374 -3.95712,54.22845 -19.50299,84.74576 -23.51962,46.17017 -67.41962,80.17659 -117.22656,90.807694 -17.10106,3.65015 -45.11601,4.4567 -61.49648,1.77046 z"
         id="path6877"
         inkscape:connector-curvature="0" /></g></clipPath></defs><sodipodi:namedview
   pagecolor="#ffffff"
   bordercolor="#666666"
   borderopacity="1"
   objecttolerance="10"
   gridtolerance="10"
   guidetolerance="10"
   inkscape:pageopacity="0"
   inkscape:pageshadow="2"
   inkscape:window-width="1462"
   inkscape:window-height="1029"
   id="namedview6215"
   showgrid="false"
   inkscape:zoom="0.59"
   inkscape:cx="283.1816"
   inkscape:cy="595.98417"
   inkscape:window-x="533"
   inkscape:window-y="202"
   inkscape:window-maximized="0"
   inkscape:current-layer="g6182"
   showguides="true"><inkscape:grid
     type="xygrid"
     id="grid6885" /></sodipodi:namedview>
















<g
   inkscape:groupmode="layer"
   id="layer4"
   inkscape:label="Layer 1"><g
     id="g6182"
     style="display:inline"
     transform="matrix(0.39133175,0.09677646,-0.11371982,0.45984506,-90.021401,162.26669)">
	
<path
   style="color:#000000;display:inline;overflow:visible;visibility:visible;fill:#0000a0;fill-opacity:1;fill-rule:nonzero;stroke:#000000;stroke-width:6.51089478;stroke-miterlimit:4;stroke-dasharray:none;stroke-opacity:1;marker:none;enable-background:accumulate"
   d="M 1071.0859,-189.44225 611.24417,-444.94989 344.34737,-36.496806 458.73517,357.13368 c 1.10996,3.81957 3.04278,7.26873 5.53982,10.25672 2.49699,2.98793 5.51894,5.52614 8.99063,7.45366 3.47171,1.92742 7.31925,3.20313 11.3532,3.84115 4.03394,0.63796 8.24669,0.60086 12.43059,-0.27968 L 830.13789,308.30564 1163.2264,238.2056 c 4.1837,-0.88048 7.9314,-2.51865 11.1509,-4.68318 3.2197,-2.16453 5.925,-4.81936 7.9407,-7.90161 2.0159,-3.0824 3.2994,-6.52666 3.8721,-10.1607 0.5727,-3.63411 0.3935,-7.45231 -0.7164,-11.2718 z"
   id="path4555"
   inkscape:connector-curvature="0" /><path
   style="color:#000000;display:inline;overflow:visible;visibility:visible;fill:#0000a0;fill-opacity:1;fill-rule:nonzero;stroke:#000000;stroke-width:3.64255333;stroke-miterlimit:4;stroke-dasharray:none;stroke-opacity:1;marker:none;enable-background:accumulate"
   d="m 362.72316,-350.33188 c -2.33658,0.4918 -4.38264,1.43407 -6.17988,2.64567 -1.79716,1.21149 -3.32561,2.66219 -4.44993,4.38857 -1.1243,1.72636 -1.84249,3.66405 -2.16045,5.70011 -0.31783,2.03597 -0.20368,4.18236 0.41841,6.32303 l 56.69698,195.10525 65.8549,-101.23841 -32.76835,-112.76222 c -0.6221,-2.14067 -1.69656,-4.08487 -3.09299,-5.76014 -1.39637,-1.67525 -3.09306,-3.10478 -5.03332,-4.18615 -1.94024,-1.08137 -4.08703,-1.75864 -6.34064,-2.11773 -2.25362,-0.35898 -4.62612,-0.37132 -6.96259,0.12041 z"
   id="path4559"
   inkscape:connector-curvature="0" /><path
   style="color:#000000;display:inline;overflow:visible;visibility:visible;fill:#ffffff;fill-opacity:1;fill-rule:nonzero;stroke:#000000;stroke-width:5.43112755;stroke-miterlimit:4;stroke-dasharray:none;stroke-opacity:1;marker:none;enable-background:accumulate"
   d="M 1014.3919,-153.91361 633.622,-371.41595 415.86739,-27.951441 512.51133,304.61901 c 0.93776,3.22706 2.55211,6.14511 4.6291,8.67645 2.07698,2.5314 4.58429,4.68554 7.45898,6.32631 2.87472,1.64071 6.05567,2.73331 9.38658,3.28856 3.33093,0.55532 6.80544,0.5418 10.2512,-0.18338 l 274.32372,-57.73268 274.32379,-57.73266 c 3.4458,-0.72511 6.527,-2.09138 9.1699,-3.90391 2.643,-1.81243 4.8588,-4.04076 6.5035,-6.63267 1.6448,-2.59191 2.6832,-5.49227 3.1344,-8.55569 0.4513,-3.06349 0.2812,-6.28544 -0.6566,-9.51249 z"
   id="path4555-8"
   inkscape:connector-curvature="0" /><path
   style="display:inline;fill:#0093ff;fill-opacity:1;stroke:none;stroke-width:1.69692659px;stroke-linecap:butt;stroke-linejoin:miter;stroke-opacity:1"
   d="M 531.84021,318.38209 C 518.45723,314.394 522.14319,324.666 471.24329,149.50965 L 425.13758,-9.1490323 533.43945,-174.73859 l 108.30194,-165.58957 187.60218,104.15037 187.60223,104.15037 45.877,157.871584 c 50.6471,174.286586 48.3044,163.821196 38.6501,172.656076 -4.5385,4.15339 -9.9484,5.35408 -283.92346,63.0134 -273.97514,57.65922 -279.41905,58.74283 -285.70923,56.86845 z"
   id="path6104"
   inkscape:connector-curvature="0" /><path
   inkscape:connector-curvature="0"
   id="path4600"
   d="m 1021.2616,10.651242 -55.3982,-25.572498 -9.1422,-31.459918 35.00589,-44.59522 c 3.59373,-4.581078 3.43383,-10.623826 -0.40506,-15.087246 l -38.72782,-45.05842 c -3.83654,-4.46232 -10.49971,-6.3841 -16.68361,-4.79593 l -60.04083,15.4691 -32.33587,-16.79904 -12.08901,-52.94074 c -1.24107,-5.43783 -6.33026,-9.6332 -12.70551,-10.47357 l -64.35804,-8.49663 c -6.37478,-0.84542 -12.66009,1.85276 -15.69169,6.72204 l -29.51593,47.45247 -36.58731,7.69998 -52.09987,-30.27602 c -5.35128,-3.10678 -12.38631,-2.99505 -17.56466,0.27687 l -52.28483,33.04292 c -5.18144,3.27413 -7.38451,9.00428 -5.50469,14.30605 l 18.30177,51.633239 -19.40957,27.689134 -61.59263,10.129135 c -6.30852,1.023126 -11.18569,5.389878 -12.13386,10.860716 l -9.5889,55.2269277 c -0.94953,5.4728153 2.21621,10.8813883 7.90492,13.5088693 l 55.39553,25.569806 9.14213,31.459997 -35.0013,44.597456 c -3.59395,4.58109 -3.43383,10.62376 0.405,15.08725 l 38.72777,45.0585 c 3.83748,4.46531 10.53343,6.40294 16.6836,4.79593 l 60.04088,-15.46916 32.33761,16.79865 12.08723,52.9412 c 1.24107,5.43775 6.3303,9.63319 12.70556,10.47356 l 64.35619,8.49694 c 6.37926,0.84765 12.66053,-1.85117 15.69174,-6.72204 l 29.51589,-47.45248 36.58735,-7.69999 52.10336,30.27535 c 3.65589,2.12225 8.09499,2.74471 12.19478,1.88189 1.9016,-0.40016 3.72873,-1.12168 5.37037,-2.15723 l 52.28434,-33.04452 c 5.1815,-3.27413 7.38452,-9.00428 5.50471,-14.30604 l -18.29994,-51.63363 19.40778,-27.68878 61.59263,-10.129128 c 6.3041,-1.03833 11.1857,-5.38987 12.1338,-10.8607 l 9.5855,-55.22626 c 0.9495,-5.472737 -2.2165,-10.881312 -7.905,-13.50879 z m -30.23726,55.629494 -57.68559,9.485101 c -4.23072,0.684544 -7.91032,2.902402 -10.12848,6.064795 l -26.37783,37.632908 c -2.21905,3.16576 -2.76654,6.99396 -1.51141,10.54155 l 17.13932,48.3594 -35.00378,22.12279 -48.79635,-28.35505 c -3.57688,-2.07726 -8.00798,-2.76305 -12.18943,-1.8831 L 766.7442,180.7143 c -4.18143,0.88004 -7.72659,3.24287 -9.75295,6.50098 l -27.64189,44.44187 -43.08565,-5.68859 -11.32079,-49.58391 c -0.83076,-3.63688 -3.41584,-6.80743 -7.11256,-8.72654 L 623.88332,144.8254 c -3.69499,-1.91957 -8.15363,-2.41497 -12.28272,-1.34831 l -56.23135,14.48928 -25.92892,-30.16594 32.78411,-41.768928 c 2.40277,-3.06523 3.17933,-6.86384 2.13458,-10.458973 L 551.9341,32.81586 c -1.04475,-3.595136 -3.81313,-6.650871 -7.61688,-8.406689 l -51.88204,-23.95055732 6.41837,-36.97349468 57.68553,-9.485103 c 4.23476,-0.69026 7.91084,-2.900869 10.12853,-6.064863 l 26.37651,-37.630859 c 2.21905,-3.165902 2.77009,-6.994792 1.51232,-10.545044 l -17.14116,-48.35904 35.00377,-22.12278 48.79595,28.35353 c 3.57685,2.07732 8.008,2.76311 12.18943,1.88309 l 49.72654,-10.46518 c 4.18148,-0.88004 7.72665,-3.24277 9.75303,-6.50097 l 27.64227,-44.44032 43.08571,5.68858 11.32257,49.58352 c 0.83076,3.63688 3.4118,6.80664 7.11165,8.73006 l 43.94841,22.83072 c 3.69671,1.91928 8.16691,2.4348 12.28269,1.34831 l 56.23138,-14.4892 25.92884,30.165866 -32.78589,41.7693 c -2.40277,3.065234 -3.17928,6.863827 -2.13458,10.458886 l 12.42498,42.7567547 c 1.04475,3.59505998 3.81311,6.650861 7.61681,8.406678 l 51.88388,23.9501873 z"
   style="display:inline;fill:#ffffff;fill-opacity:1;fill-rule:nonzero;stroke-width:1.6959753" /><path
   style="display:inline;fill:#ff8030;fill-opacity:1;stroke:none;stroke-width:2.15670562px;stroke-linecap:butt;stroke-linejoin:miter;stroke-opacity:1"
   d="m 705.16963,227.72002 -17.7357,-2.39735 -6.77465,-27.47236 -6.77469,-27.47243 -27.96707,-14.67073 -27.96712,-14.67072 -31.23725,7.93837 -31.23728,7.93837 -12.23888,-14.54888 -12.23887,-14.5488 7.57283,-9.75316 c 31.8502,-41.020653 30.65337,-36.715758 19.54908,-70.315989 L 551.29638,27.09878 522.53857,13.299531 493.78075,-0.49971632 l 2.86511,-17.58657468 2.8651,-17.586508 32.63578,-5.507214 32.63566,-5.507137 16.27678,-23.221842 16.27684,-23.221832 -9.31189,-27.613126 -9.31178,-27.61311 17.10218,-10.55 c 14.73163,-9.08756 17.62005,-10.24886 20.83889,-8.3784 2.05524,1.19426 13.92151,8.13935 26.36956,15.43353 l 22.63278,13.26206 32.40556,-6.81996 32.40556,-6.81987 8.73947,-13.68443 c 4.80675,-7.52645 11.71515,-18.40894 15.352,-24.18344 l 6.6125,-10.49909 20.60646,2.54836 20.60652,2.54829 6.38952,27.49852 6.38956,27.49859 28.09579,14.5963 28.09579,14.59629 31.69754,-7.45032 31.69753,-7.45032 12.15535,13.92208 12.15541,13.922062 -5.58803,7.161602 c -3.07338,3.93881 -11.24838,14.582826 -18.16664,23.653303 l -12.5786,16.491708 7.75997,26.703572 7.75994,26.7035017 11.93712,6.036027 c 6.56543,3.3198703 19.59502,9.5121563 28.95479,13.7606553 l 17.01765,7.724482 -3.00306,17.072227 -3.00315,17.072148 -32.15646,6.085043 -32.15648,6.085042 -16.47502,23.142269 -16.47513,23.142308 8.22484,28.30316 8.22478,28.30314 -14.0755,9.04134 c -7.74159,4.97277 -15.1978,9.27749 -16.56945,9.5662 -1.37164,0.28869 -14.43106,-6.23304 -29.02094,-14.49269 l -26.52712,-15.01751 -31.78691,6.68961 -31.78697,6.68977 -6.54453,10.13241 c -3.59947,5.5728 -10.20172,16.23247 -14.67168,23.68798 -4.46997,7.45565 -9.77448,13.82362 -11.78779,14.15119 -2.01333,0.32757 -11.64169,-0.48322 -21.39632,-1.80166 z"
   id="path5229"
   inkscape:connector-curvature="0" /><path
   style="display:inline;fill:#ffe75a;stroke-width:4.89800692"
   inkscape:connector-curvature="0"
   id="path2"
   d="m 703.95705,-117.83899 c -47.63478,10.02495 -76.64546,51.292496 -64.76419,92.178131 3.91049,13.456776 11.94716,25.04531068 22.23777,34.5286767 30.70141,28.2943163 41.66569,45.4953873 50.30222,62.5601653 7.2297,14.304939 12.24143,16.927679 25.37463,14.163749 5.60136,-1.17888 14.72991,-3.1 24.46945,-5.14973 9.76005,-2.054078 18.90913,-3.979487 24.47459,-5.150849 13.15884,-2.769278 16.16155,-7.078635 14.71804,-22.601317 -1.69767,-18.534467 -1.42456,-38.105232 10.23997,-75.301619 3.93738,-12.473028 4.67503,-25.90805 0.76327,-39.369259 -11.86659,-40.893448 -60.13472,-65.892668 -107.81575,-55.857948 z" /><path
   style="display:inline;fill:#ffe75a;stroke-width:4.89800692"
   inkscape:connector-curvature="0"
   id="path4"
   d="m 794.00598,79.303822 -61.67679,12.98018 c -2.56709,0.54028 -4.12175,2.74586 -3.48447,4.93877 l 0.77028,2.65085 c 0.63474,2.184118 3.22073,3.527568 5.78788,2.987358 l 61.67673,-12.980188 c 2.53114,-0.53268 4.08839,-2.74819 3.45365,-4.9323 l -0.77028,-2.65078 c -0.62738,-2.19494 -3.22585,-3.526579 -5.757,-2.99389 z" /><path
   style="display:inline;fill:#ffe75a;stroke-width:4.89800692"
   inkscape:connector-curvature="0"
   id="path6"
   d="m 798.61645,95.169272 -61.67678,12.980198 c -2.56711,0.54028 -4.12431,2.73706 -3.48452,4.93876 l 0.77033,2.65086 c 0.63467,2.18412 3.21817,3.51876 5.78525,2.97856 l 61.6768,-12.98018 c 2.5311,-0.5327 4.09088,-2.73941 3.45621,-4.92344 l -0.77033,-2.650858 c -0.62865,-2.19938 -3.22586,-3.52658 -5.75696,-2.9939 z" /><path
   style="display:inline;fill:#ffe75a;stroke-width:4.89800692"
   inkscape:connector-curvature="0"
   id="path8"
   d="m 803.22816,111.0392 -61.67674,12.98008 c -2.5671,0.54037 -4.12176,2.74595 -3.48452,4.93886 l 0.77033,2.65086 c 0.63724,2.19283 3.22072,3.52757 5.78782,2.98735 l 61.67673,-12.98019 c 2.53115,-0.53268 4.09095,-2.7394 3.45372,-4.9323 l -0.77034,-2.65078 c -0.62738,-2.19502 -3.22586,-3.52657 -5.757,-2.99388 z" /><path
   style="display:inline;fill:#ffe75a;stroke-width:4.89800692"
   inkscape:connector-curvature="0"
   id="path10"
   d="m 753.86312,138.26408 46.27427,-9.73866 c 2.30457,7.93055 -8.51145,15.81875 -19.32915,18.0954 -10.7663,2.26574 -24.64055,-0.42627 -26.94512,-8.35674 z" /><path
   style="color:#000000;display:inline;overflow:visible;visibility:visible;fill:#0000a0;fill-opacity:1;fill-rule:nonzero;stroke:#000000;stroke-width:6.51089478;stroke-miterlimit:4;stroke-dasharray:none;stroke-opacity:1;marker:none;enable-background:accumulate"
   d="m 611.24417,-444.94989 c -11.63115,2.60872 -21.53229,9.25566 -27.60116,18.52937 L 274.02343,47.358017 c -12.88488,19.701653 -5.34139,45.660445 16.8489,57.980373 22.1904,12.31994 50.62436,6.33588 63.50934,-13.365788 L 640.57253,-345.9823 1133.6427,-72.026413 c 22.1902,12.320007 50.6243,6.335955 63.5091,-13.365778 12.8849,-19.701739 5.3414,-45.660369 -16.8488,-57.980289 l -533.15076,-296.4138 c -10.86406,-6.02847 -23.81894,-7.89147 -35.90807,-5.16361 z"
   id="rect3345"
   sodipodi:nodetypes="cccscccscccc"
   inkscape:connector-curvature="0" /></g></g></svg>