<?xml version="1.0" encoding="UTF-8" standalone="no"?>
<!-- Generator: Adobe Illustrator 19.0.0, SVG Export Plug-In . SVG Version: 6.00 Build 0)  -->

<svg
   xmlns:dc="http://purl.org/dc/elements/1.1/"
   xmlns:cc="http://creativecommons.org/ns#"
   xmlns:rdf="http://www.w3.org/1999/02/22-rdf-syntax-ns#"
   xmlns:svg="http://www.w3.org/2000/svg"
   xmlns="http://www.w3.org/2000/svg"
   xmlns:sodipodi="http://sodipodi.sourceforge.net/DTD/sodipodi-0.dtd"
   xmlns:inkscape="http://www.inkscape.org/namespaces/inkscape"
   version="1.1"
   id="Layer_1"
   x="0px"
   y="0px"
   viewBox="0 0 400 400"
   style="enable-background:new 0 0 400 400;"
   xml:space="preserve"
   sodipodi:docname="lightning.svg"
   inkscape:version="0.92.4 (5da689c313, 2019-01-14)"><metadata
   id="metadata6219"><rdf:RDF><cc:Work
       rdf:about=""><dc:format>image/svg+xml</dc:format><dc:type
         rdf:resource="http://purl.org/dc/dcmitype/StillImage" /><dc:title></dc:title></cc:Work></rdf:RDF></metadata><defs
   id="defs6217"><clipPath
     clipPathUnits="userSpaceOnUse"
     id="clipPath6861"><g
       style="fill:#ff8838;fill-opacity:1"
       id="use6863"
       inkscape:label="Clip"><path
         style="fill:#ff8838;fill-opacity:1;stroke:none;stroke-width:1.69491529px;stroke-linecap:butt;stroke-linejoin:miter;stroke-opacity:1"
         d="M 170.86668,-96.367566 C 99.589816,-108.05628 42.516636,-163.76959 27.789806,-236.03537 c -14.55792,-71.43694 15.04552,-145.56527 74.026294,-185.36507 77.18484,-52.08379 177.38845,-33.8679 234.47112,42.62421 10.30105,13.80365 23.02249,41.01833 28.14471,60.2093 3.97581,14.89586 4.53079,20.23942 4.66078,44.87545 0.191,36.20374 -3.95712,54.22845 -19.50299,84.74576 -23.51962,46.17017 -67.41962,80.17659 -117.22656,90.807694 -17.10106,3.65015 -45.11601,4.4567 -61.49648,1.77046 z"
         id="path6877"
         inkscape:connector-curvature="0" /></g></clipPath></defs><sodipodi:namedview
   pagecolor="#ffffff"
   bordercolor="#666666"
   borderopacity="1"
   objecttolerance="10"
   gridtolerance="10"
   guidetolerance="10"
   inkscape:pageopacity="0"
   inkscape:pageshadow="2"
   inkscape:window-width="1462"
   inkscape:window-height="1029"
   id="namedview6215"
   showgrid="false"
   inkscape:zoom="0.59"
   inkscape:cx="283.1816"
   inkscape:cy="194.91525"
   inkscape:window-x="533"
   inkscape:window-y="202"
   inkscape:window-maximized="0"
   inkscape:current-layer="g6182"
   showguides="true"><inkscape:grid
     type="xygrid"
     id="grid6885" /></sodipodi:namedview>
















<path
   style="fill:#ffd338;fill-opacity:0;stroke:#ffde00;stroke-width:18.19672585;stroke-linecap:butt;stroke-linejoin:miter;stroke-miterlimit:4;stroke-dasharray:none;stroke-opacity:1"
   d="M 177.47406,338.84939 C 123.43917,330.27059 80.172038,289.38052 69.007652,236.34196 57.971315,183.9117 80.413643,129.50615 125.12691,100.29558 c 58.51372,-38.226237 134.47796,-24.856908 177.75225,31.28351 7.80923,10.13103 17.45333,30.10489 21.33648,44.18988 3.01405,10.9326 3.43478,14.85444 3.53332,32.93575 0.14481,26.57128 -2.99986,39.80031 -14.78519,62.19811 -17.83018,33.886 -51.11071,58.8446 -88.8693,66.64716 -12.96429,2.67897 -34.20239,3.27093 -46.62041,1.2994 z"
   id="path6839"
   inkscape:connector-curvature="0" /><g
   inkscape:groupmode="layer"
   id="layer4"
   inkscape:label="Layer 1"><g
     id="g6182"
     style="display:inline"
     transform="matrix(0.39133175,0.09677646,-0.11371982,0.45984506,-90.021401,162.26669)">
	
<path
   style="display:inline;fill:#f7cf52;stroke-width:1.3782239"
   d="M 868.02497,-198.74552 724.03968,-199.35274 598.07335,68.501915 668.5375,73.514693 543.3819,398.77041 839.13717,23.027356 741.96306,22.617554 Z"
   id="polygon6180-4"
   inkscape:connector-curvature="0"
   sodipodi:nodetypes="cccccccc" /><path
   style="display:inline;fill:#f7cf52;stroke-width:1.3782239"
   d="m 886.99513,-536.09316 v 0 l -290.09334,387.41105 100.52352,0.42393 -28.88781,221.772873 199.48747,-272.260213 -97.17409,-0.40981 z"
   id="polygon6180-4-1"
   inkscape:connector-curvature="0"
   sodipodi:nodetypes="cccccccc" /></g></g></svg>