<?xml version="1.0" encoding="UTF-8" standalone="no"?>
<!-- Generator: Adobe Illustrator 19.0.0, SVG Export Plug-In . SVG Version: 6.00 Build 0)  -->

<svg
   xmlns:osb="http://www.openswatchbook.org/uri/2009/osb"
   xmlns:dc="http://purl.org/dc/elements/1.1/"
   xmlns:cc="http://creativecommons.org/ns#"
   xmlns:rdf="http://www.w3.org/1999/02/22-rdf-syntax-ns#"
   xmlns:svg="http://www.w3.org/2000/svg"
   xmlns="http://www.w3.org/2000/svg"
   xmlns:sodipodi="http://sodipodi.sourceforge.net/DTD/sodipodi-0.dtd"
   xmlns:inkscape="http://www.inkscape.org/namespaces/inkscape"
   version="1.1"
   id="Layer_1"
   x="0px"
   y="0px"
   viewBox="0 0 501.267 501.267"
   style="enable-background:new 0 0 501.267 501.267;"
   xml:space="preserve"
   sodipodi:docname="magic-wand.svg"
   inkscape:version="0.92.4 (5da689c313, 2019-01-14)"><metadata
   id="metadata51"><rdf:RDF><cc:Work
       rdf:about=""><dc:format>image/svg+xml</dc:format><dc:type
         rdf:resource="http://purl.org/dc/dcmitype/StillImage" /><dc:title></dc:title></cc:Work></rdf:RDF></metadata><defs
   id="defs49"><linearGradient
   id="linearGradient6816"
   osb:paint="solid"><stop
     style="stop-color:#ffb024;stop-opacity:1;"
     offset="0"
     id="stop6814" /></linearGradient>
	

		
	</defs><sodipodi:namedview
   pagecolor="#ffffff"
   bordercolor="#666666"
   borderopacity="1"
   objecttolerance="10"
   gridtolerance="10"
   guidetolerance="10"
   inkscape:pageopacity="0"
   inkscape:pageshadow="2"
   inkscape:window-width="1363"
   inkscape:window-height="1017"
   id="namedview47"
   showgrid="false"
   inkscape:zoom="0.47080698"
   inkscape:cx="250.6335"
   inkscape:cy="250.6335"
   inkscape:window-x="699"
   inkscape:window-y="206"
   inkscape:window-maximized="0"
   inkscape:current-layer="g10" />
<g
   style="display:inline"
   id="g10">
			<path
   sodipodi:nodetypes="csccssccccccccccccc"
   style="display:inline;fill:#ffc805;fill-opacity:1;stroke-width:0.77513289"
   d="m 287.31415,197.98161 -4.68732,0.074 c -4.43676,0.07 -49.85818,13.60618 -52.9958,16.92008 L 2.3552124,454.93616 c -3.13761653,3.3139 -3.13761653,8.66712 0,11.98101 l 30.1693896,31.86441 c 3.137617,3.31389 8.206074,3.31389 11.343691,0 L 271.14411,258.82112 c 3.13762,-3.3139 27.65276,-109.62401 16.17004,-60.83951 z M 38.236422,480.85227 19.410723,460.96889 198.09421,272.24638 l 18.8257,19.88339 z M 228.2636,280.06432 209.4379,260.18093 287.31415,197.98161 254.0886,252.78839 Z"
   id="path2"
   inkscape:connector-curvature="0" />
			<path
   style="display:inline;stroke-width:0.775;fill:#ff4024;fill-opacity:1;stroke:#000000;stroke-opacity:1;stroke-miterlimit:4;stroke-dasharray:none"
   d="m 375.73158,195.68738 -28.80196,-30.50459 18.50364,-38.40696 c 2.01154,-4.16388 0.48271,-9.26219 -3.45968,-11.47119 -2.33284,-1.27457 -5.06845,-1.27457 -7.32135,0 l -36.28397,19.54324 -28.80197,-30.33492 c -3.13761,-3.39913 -8.20607,-3.39913 -11.42439,-0.0852 -1.85014,1.86964 -2.65491,4.58847 -2.33285,7.22286 l 5.87323,43.42083 -37.08799,20.30798 c -3.94238,2.12456 -5.47046,7.3073 -3.45967,11.47118 1.20677,2.37948 3.37897,4.07865 5.87322,4.50324 l 40.30631,6.62779 6.51659,42.40117 c 0.56341,3.65405 3.21832,6.45812 6.67724,7.05239 0.402,0.0852 0.80477,0.0852 1.20677,0.0852 3.05692,0 5.79253,-1.7844 7.15995,-4.58847 l 18.90641,-38.91679 41.03037,6.11796 c 4.42509,0.67951 8.44742,-2.54915 9.09079,-7.13762 0.56492,-2.71963 -0.32055,-5.43926 -2.17069,-7.3081 z m -51.24799,-9.34743 c -3.37897,-0.59506 -6.75794,1.27458 -8.28678,4.50324 l -10.29756,21.2432 -3.53963,-22.94237 c -0.56341,-3.65405 -3.29827,-6.45812 -6.67724,-7.05239 l -21.80266,-3.56881 20.35453,-11.13103 c 3.05692,-1.69917 4.7464,-5.18354 4.26369,-8.75236 l -3.21832,-24.13171 15.84874,16.82441 c 2.49425,2.63439 6.27523,3.22866 9.33214,1.61473 l 19.38912,-10.45153 -9.89556,20.5629 c -1.60879,3.3139 -0.96542,7.22286 1.44813,9.85646 l 15.92943,16.8244 z"
   id="path4"
   inkscape:connector-curvature="0" />
			
			
		<g
   transform="translate(267.51147,192.75843)"
   id="g4644"
   style="fill:#ff0000;fill-opacity:1"><g
     id="g4642"
     style="fill:#ff0000;fill-opacity:1"><polygon
       points="122.23,80.632 146.656,93.992 160.014,118.417 173.373,93.992 197.799,80.632 173.373,67.274 160.014,42.848 146.656,67.274 "
       id="polygon4640"
       style="fill:#ff0000;fill-opacity:1" /></g></g><polygon
   transform="translate(44.49013,-365.85692)"
   points="352.14,364.731 341.335,384.489 321.577,395.294 341.335,406.1 352.14,425.856 362.946,406.1 382.703,395.294 362.946,384.489 "
   id="polygon4646"
   style="fill:#00ba00;fill-opacity:1" /><g
   transform="translate(-129.67891,12.217341)"
   id="g4656"
   style="fill:#1b5bff;fill-opacity:1"><g
     id="g4654"
     style="fill:#1b5bff;fill-opacity:1"><polygon
       points="336.774,30.563 356.531,41.369 367.337,61.126 378.142,41.369 397.9,30.563 378.142,19.757 367.337,0 356.531,19.757 "
       id="polygon4652"
       style="fill:#1b5bff;fill-opacity:1" /></g></g><g
   transform="translate(-293.22789,-0.52673546)"
   id="g4662"
   style="fill:#8e00ff;fill-opacity:1"><g
     id="g4660"
     style="fill:#8e00ff;fill-opacity:1"><polygon
       points="484.167,130.689 477.701,142.513 465.876,148.979 477.701,155.446 484.167,167.27 490.635,155.446 502.458,148.979 490.635,142.513 "
       id="polygon4658"
       style="fill:#8e00ff;fill-opacity:1" /></g></g><g
   transform="translate(-8.6101838,-181.0678)"
   id="g4668"
   style="fill:#ff8000;fill-opacity:1"><g
     id="g4666"
     style="fill:#ff8000;fill-opacity:1"><polygon
       points="439.128,294.117 446.962,320.865 439.128,347.615 465.876,339.781 492.626,347.615 484.791,320.865 492.626,294.117 465.876,301.951 "
       id="polygon4664"
       style="fill:#ff8000;fill-opacity:1" /></g></g><path
   style="fill:#ff9600;fill-opacity:1;stroke:none;stroke-width:2.12401271px;stroke-linecap:butt;stroke-linejoin:miter;stroke-opacity:1"
   d="m 29.437771,470.1728 -8.979373,-9.14932 80.082172,-84.69826 c 44.0452,-46.58405 84.05678,-88.77426 88.91464,-93.75602 l 8.83246,-9.05775 8.9466,9.11592 8.9466,9.11592 -68.29287,72.15826 c -37.56108,39.68704 -77.557912,81.89228 -88.881861,93.78941 l -20.588994,21.63116 z"
   id="path5316"
   inkscape:connector-curvature="0" /><path
   style="fill:#ff9600;fill-opacity:1;stroke:none;stroke-width:2.12401271px;stroke-linecap:butt;stroke-linejoin:miter;stroke-opacity:1"
   d="m 219.42316,269.33776 c -7.27168,-7.44687 -7.93817,-8.91798 -5.23464,-11.55409 6.04035,-5.88973 66.82857,-53.90482 67.46302,-53.28735 1.80701,1.75867 -29.34518,48.48169 -39.68345,59.51846 -6.56563,7.00924 -12.44935,12.99434 -13.07492,13.30021 -0.62557,0.30588 -4.88708,-3.28388 -9.47001,-7.97723 z"
   id="path6820"
   inkscape:connector-curvature="0" /><path
   style="fill:#ff9624;stroke:none;stroke-width:2.12401271px;stroke-linecap:butt;stroke-linejoin:miter;stroke-opacity:1;fill-opacity:1"
   d="m 304.62896,197.54155 c -1.65041,-12.44141 -5.54616,-17.41127 -13.68473,-17.4578 -11.22588,-0.0642 -12.03317,-3.32342 -2.18305,-8.81359 l 9.2378,-5.14889 -0.39002,-13.47402 -0.39002,-13.47401 7.91362,7.72744 c 9.07613,8.86261 12.3529,9.38155 22.02026,3.48736 9.86949,-6.01743 10.79486,-5.36958 5.93554,4.15547 -6.00334,11.76752 -5.43092,15.80294 3.67066,25.8773 5.93006,6.56387 6.87861,8.47928 3.71702,7.50577 -6.65927,-2.0505 -19.01094,-2.40835 -21.88196,-0.63397 -1.43442,0.88653 -4.83888,6.00143 -7.56546,11.36645 l -4.95742,9.75458 z"
   id="path6822"
   inkscape:connector-curvature="0" /></g>















</svg>