<?xml version="1.0" encoding="UTF-8" standalone="no"?>
<!-- Generator: Adobe Illustrator 19.0.0, SVG Export Plug-In . SVG Version: 6.00 Build 0)  -->

<svg
   xmlns:dc="http://purl.org/dc/elements/1.1/"
   xmlns:cc="http://creativecommons.org/ns#"
   xmlns:rdf="http://www.w3.org/1999/02/22-rdf-syntax-ns#"
   xmlns:svg="http://www.w3.org/2000/svg"
   xmlns="http://www.w3.org/2000/svg"
   xmlns:sodipodi="http://sodipodi.sourceforge.net/DTD/sodipodi-0.dtd"
   xmlns:inkscape="http://www.inkscape.org/namespaces/inkscape"
   version="1.1"
   id="Layer_1"
   x="0px"
   y="0px"
   viewBox="0 0 400 400"
   style="enable-background:new 0 0 400 400;"
   xml:space="preserve"
   sodipodi:docname="tools.svg"
   inkscape:version="0.92.4 (5da689c313, 2019-01-14)"><metadata
   id="metadata6219"><rdf:RDF><cc:Work
       rdf:about=""><dc:format>image/svg+xml</dc:format><dc:type
         rdf:resource="http://purl.org/dc/dcmitype/StillImage" /><dc:title></dc:title></cc:Work></rdf:RDF></metadata><defs
   id="defs6217"><clipPath
     clipPathUnits="userSpaceOnUse"
     id="clipPath6861"><g
       style="fill:#ff8838;fill-opacity:1"
       id="use6863"
       inkscape:label="Clip"><path
         style="fill:#ff8838;fill-opacity:1;stroke:none;stroke-width:1.69491529px;stroke-linecap:butt;stroke-linejoin:miter;stroke-opacity:1"
         d="M 170.86668,-96.367566 C 99.589816,-108.05628 42.516636,-163.76959 27.789806,-236.03537 c -14.55792,-71.43694 15.04552,-145.56527 74.026294,-185.36507 77.18484,-52.08379 177.38845,-33.8679 234.47112,42.62421 10.30105,13.80365 23.02249,41.01833 28.14471,60.2093 3.97581,14.89586 4.53079,20.23942 4.66078,44.87545 0.191,36.20374 -3.95712,54.22845 -19.50299,84.74576 -23.51962,46.17017 -67.41962,80.17659 -117.22656,90.807694 -17.10106,3.65015 -45.11601,4.4567 -61.49648,1.77046 z"
         id="path6877"
         inkscape:connector-curvature="0" /></g></clipPath></defs><sodipodi:namedview
   pagecolor="#ffffff"
   bordercolor="#666666"
   borderopacity="1"
   objecttolerance="10"
   gridtolerance="10"
   guidetolerance="10"
   inkscape:pageopacity="0"
   inkscape:pageshadow="2"
   inkscape:window-width="1462"
   inkscape:window-height="1029"
   id="namedview6215"
   showgrid="false"
   inkscape:zoom="0.59"
   inkscape:cx="7.7578712"
   inkscape:cy="194.91525"
   inkscape:window-x="1344"
   inkscape:window-y="403"
   inkscape:window-maximized="0"
   inkscape:current-layer="layer4"
   showguides="true"><inkscape:grid
     type="xygrid"
     id="grid6885" /></sodipodi:namedview>
















<g
   inkscape:groupmode="layer"
   id="layer4"
   inkscape:label="Layer 1"><g
     id="g3753"
     transform="matrix(1.2641956,0,0,1.2441375,-432.94528,307.1303)"><path
       style="display:inline;fill:#929595;fill-opacity:1;stroke:none;stroke-width:0.02358501"
       inkscape:connector-curvature="0"
       id="path870-5"
       d="m 470.28222,-220.48491 c -8.2446,-2.70288 -15.68009,-3.75605 -22.72853,-3.23633 -8.06047,0.5806 -14.47959,2.93345 -21.58341,7.88443 l -1.84401,1.29322 16.11552,7.0431 16.13684,7.05226 0.97858,1.01898 c 1.46065,1.48629 2.15065,2.82438 2.19856,4.30389 l 0.0593,1.276 -6.52959,15.04527 c -7.10536,16.3875 -7.25885,16.6864 -8.92397,17.32689 -2.0346,0.79463 -1.15223,1.09496 -19.87954,-6.99032 -16.36922,-7.09984 -17.01919,-7.3526 -17.1891,-6.95652 -0.42227,1.04335 -0.12027,8.88453 0.52108,13.22385 0.22568,1.47762 1.68705,4.55344 3.37741,7.15434 0.54211,0.8578 2.39834,3.42564 4.10712,5.74785 1.71826,2.30021 4.60608,6.35267 6.42457,9.00852 1.79712,2.64669 4.33548,6.15844 5.62579,7.80613 1.25952,1.66055 2.72356,3.66937 3.21104,4.47769 l 0.90597,1.48284 1.31895,-3.13372 c 0.73624,-1.71633 1.40189,-3.15027 1.49427,-3.18881 0.0924,-0.0385 1.88292,0.44296 3.98182,1.03066 2.12027,0.59686 5.44515,1.44993 7.39214,1.92036 4.85677,1.17149 4.49132,0.96263 4.03873,2.25349 l -0.38902,1.08367 2.20612,0.86817 2.20613,0.86816 0.90904,-1.82454 0.90904,-1.82455 10.35524,4.44193 c 10.99576,4.7167 13.13828,5.79206 18.45695,9.2459 7.20545,4.65398 9.8512,7.32601 24.72638,25.039766 4.36447,5.2069 16.64264,19.72244 27.23878,32.26592 41.24167,48.7718204 59.30967,70.12174 65.73394,77.77542 10.3872,12.32355 11.33947,13.22704 16.5064,15.44342 2.59533,1.13936 3.40173,1.38105 5.0116,1.5766 9.5216,1.14037 18.71413,-4.79043 22.08067,-14.28856 0.86986,-2.44054 1.2312,-4.34371 1.19586,-6.67758 -0.028,-4.41472 -1.59586,-8.8911996 -4.43813,-12.6374996 -0.48,-0.64883 -12.72467,-13.7691804 -27.17827,-29.1657404 -14.45346,-15.39653 -28.5436,-30.40272 -31.31786,-33.36436 -7.684,-8.19404 -35.56733,-37.89666 -43.3724,-46.220786 -2.75307,-2.95251 -7.28737,-7.76335 -10.07113,-10.703 -8.7599,-9.28079 -9.80747,-10.43356 -13.76084,-15.12547 -4.49751,-5.3682 -6.53892,-8.09363 -9.45154,-12.67775 -3.759,-5.91116 -6.56058,-11.93268 -8.41421,-18.04257 -0.48189,-1.58752 -2.84331,-11.64079 -5.2344,-22.33204 -2.41245,-10.70043 -4.59027,-20.17992 -4.85031,-21.047 -1.8943,-6.30972 -6.50618,-10.76303 -14.74025,-14.13876 -1.46132,-0.60078 -3.0388,-1.22535 -3.5274,-1.38282 z M 635.5067,6.0023264 c 5.09213,3.98195 6.71733,9.6812396 4.45586,15.7193896 -1.63893,4.35121 -4.00453,6.80149 -8.25346,8.57415 -2.73094,1.12124 -4.7688,1.39336 -7.43387,1.0057 -2.096,-0.29986 -5.30853,-1.88632 -6.724,-3.30113 -2.3132,-2.26883 -4.53853,-6.92288 -4.68147,-9.77187 -0.298,-5.72916 3.7716,-12.0338196 9.24267,-14.2982996 4.37213,-1.82404 9.42013,-1.03947 13.39427,2.07206 z" /><path
       sodipodi:nodetypes="cccccccccscccccccccccccc"
       style="display:inline;fill:#ff0000;fill-opacity:1;stroke:none;stroke-width:0.02358501"
       inkscape:connector-curvature="0"
       id="path870-4"
       d="m 484.14533,-114.78209 c 7.20545,4.65399 9.8512,7.32601 24.72638,25.039766 4.36447,5.20691 16.64264,19.72244 27.23878,32.26592 41.24167,48.7718304 59.30967,70.12176 65.73394,77.77541 10.3872,12.32356 11.33947,13.22706 16.5064,15.44344 2.59533,1.13935 3.40173,1.38104 5.0116,1.57659 9.5216,1.14036 18.71413,-4.79044 22.08067,-14.28856 0.86986,-2.44053 1.2312,-4.34371 1.19586,-6.67759 -0.028,-4.41472 -1.59586,-8.8911996 -4.43813,-12.6374996 -0.48,-0.64883 -12.72467,-13.7691804 -27.17827,-29.1657204 -14.45346,-15.39654 -28.5436,-30.40272 -31.31786,-33.36438 -7.684,-8.19402 -35.56733,-37.89665 -43.3724,-46.220776 -2.75307,-2.95251 -7.28737,-7.76335 -10.07113,-10.703 -8.7599,-9.28079 -9.80747,-10.43357 -13.76084,-15.12547 -4.49751,-5.3682 -5.69051,-3.00699 -8.60311,-7.59111 0,0 -31.07985,13.14369 -23.75189,23.67298 z M 635.5067,6.0023264 c 5.09213,3.98196 6.71733,9.6812696 4.45586,15.7193996 -1.63893,4.3512 -4.00453,6.80148 -8.25346,8.57414 -2.73094,1.12125 -4.7688,1.39337 -7.43387,1.00573 -2.096,-0.29989 -5.30853,-1.88635 -6.724,-3.30116 -2.3132,-2.26881 -4.53853,-6.92287 -4.68147,-9.77187 -0.298,-5.72916 3.7716,-12.0338096 9.24267,-14.2982896 4.37213,-1.82404 9.42013,-1.03948 13.39427,2.07205 z" /><g
       transform="matrix(1.3333333,0,0,1.3333333,150.00012,-655.91407)"
       id="g3108"><polygon
         transform="matrix(4.2601686,0,0,3.9315751,144.02003,319.0324)"
         style="fill:#b0b0a7;fill-opacity:1"
         points="20.389,33.732 21.719,35.078 53.625,3.173 52.287,1.835 "
         id="polygon2" /><path
         style="fill:#ffb302;fill-opacity:1;stroke-width:4.09257555"
         d="m 238.79171,464.18615 -0.24424,0.22427 -15.49452,-14.47216 c -3.81236,-2.02476 -9.5513,-2.37465 -8.92922,-0.12222 0.60944,2.19772 -0.50542,3.84508 -1.93405,5.05992 -5.30362,-0.7234 -10.41588,0.56616 -14.05009,3.84901 l -47.93951,46.97052 c -6.6587,6.02318 -8.32869,14.57436 0.38072,22.4611 l 1.41886,1.28165 c 8.70796,7.88675 14.97043,11.21287 21.62855,5.18187 l 56.46904,-46.97053 c 3.60404,-3.26713 4.74102,-8.11872 3.71006,-13.13146 1.83205,-2.3275 5.92628,-2.30784 5.92628,-2.30784 1.75533,-1.5923 1.12032,-5.11498 -0.94188,-8.02435 z m -83.7463,53.07232 c -0.49968,0 -1.00539,-0.16094 -1.40967,-0.49117 -0.8824,-0.71949 -0.96745,-1.96185 -0.18102,-2.77569 l 43.56915,-45.51978 c 0.77925,-0.81382 2.13001,-0.89247 3.00753,-0.17311 0.88154,0.7195 0.96688,1.96188 0.18102,2.7757 l -43.57317,45.51978 c -0.41462,0.44034 -1.00538,0.66444 -1.59327,0.66444 z m 10.99141,2.35897 c -0.54536,0 -1.09072,-0.19302 -1.50822,-0.57402 -0.8304,-0.76667 -0.8304,-2.01297 0,-2.77962 l 46.53415,-42.94459 c 0.8304,-0.76667 2.18116,-0.76667 3.01156,0 0.83097,0.76664 0.83097,2.01295 0,2.77962 l -46.52955,42.94067 c -0.41463,0.38528 -0.96286,0.57794 -1.50794,0.57794 z m 53.29054,-30.55621 -49.32417,40.20819 c -0.40342,0.33026 -0.90769,0.4912 -1.41052,0.4912 -0.58789,0 -1.17578,-0.22427 -1.5973,-0.66441 -0.77983,-0.81385 -0.69851,-2.05623 0.18102,-2.7757 l 49.32417,-40.20822 c 0.88614,-0.71947 2.22857,-0.64085 3.00782,0.1731 0.77983,0.81382 0.69852,2.0562 -0.18102,2.7757 z"
         id="path4"
         inkscape:connector-curvature="0" /><path
         style="display:inline;fill:#e86700;fill-opacity:1;stroke-width:4.09257555"
         d="m 366.77176,326.24686 0.002,5.45618 5.47864,0.40677 4.1744,-5.12183 3.95573,-4.51539 -3.81253,-3.44013 -4.89905,3.60525 z"
         id="polygon6"
         inkscape:connector-curvature="0"
         sodipodi:nodetypes="cccccccc" /></g></g></g></svg>